<svg xmlns="http://www.w3.org/2000/svg" xml:space="preserve" width="48" height="48"><path d="M24 13.246c1.451 0 2.859.284 4.186.845a10.677 10.677 0 0 1 3.418 2.306 10.72 10.72 0 0 1 3.151 7.604 10.718 10.718 0 0 1-3.151 7.606A10.727 10.727 0 0 1 24 34.756c-1.455 0-2.862-.283-4.186-.845a10.782 10.782 0 0 1-5.726-5.724c-.56-1.322-.843-2.73-.843-4.186a10.682 10.682 0 0 1 3.149-7.604A10.729 10.729 0 0 1 24 13.246m0-3.4c-1.91 0-3.764.375-5.51 1.113a14.1 14.1 0 0 0-4.5 3.033 14.146 14.146 0 0 0-3.033 4.498c-.738 1.746-1.111 3.6-1.111 5.51s.373 3.764 1.111 5.51a14.166 14.166 0 0 0 7.533 7.531c1.746.74 3.6 1.113 5.51 1.113s3.764-.373 5.51-1.113a14.096 14.096 0 0 0 4.498-3.031A14.133 14.133 0 0 0 38.154 24a14.102 14.102 0 0 0-4.146-10.008 14.08 14.08 0 0 0-4.498-3.033A14.077 14.077 0 0 0 24 9.846z"/><path d="M20.152 18.123h2.91v11.754h-2.91zM24.938 18.123h2.91v11.754h-2.91z"/></svg>