<svg xmlns="http://www.w3.org/2000/svg" xml:space="preserve" width="48" height="48"><path d="M37.041 18.49a14.102 14.102 0 0 0-3.033-4.498 14.08 14.08 0 0 0-4.498-3.033c-1.746-.738-3.6-1.113-5.51-1.113s-3.764.375-5.51 1.113a14.1 14.1 0 0 0-4.5 3.033 14.146 14.146 0 0 0-3.033 4.498c-.738 1.746-1.111 3.6-1.111 5.51s.373 3.764 1.111 5.51a14.166 14.166 0 0 0 7.533 7.531c1.746.74 3.6 1.113 5.51 1.113s3.764-.373 5.51-1.113a14.096 14.096 0 0 0 4.498-3.031A14.133 14.133 0 0 0 38.154 24c0-1.91-.375-3.764-1.113-5.51zm-3.132 9.696a10.718 10.718 0 0 1-2.306 3.42 10.727 10.727 0 0 1-7.604 3.149c-1.455 0-2.862-.283-4.186-.845a10.782 10.782 0 0 1-5.726-5.724c-.56-1.322-.843-2.73-.843-4.186a10.682 10.682 0 0 1 3.149-7.604 10.729 10.729 0 0 1 7.606-3.151c1.452 0 2.859.284 4.186.845a10.677 10.677 0 0 1 3.418 2.306A10.72 10.72 0 0 1 34.754 24c0 1.452-.284 2.859-.845 4.186z"/><path d="m20.704 18.388-.001-.001v11.226L30.427 24l-9.723-5.613z"/></svg>