<svg xmlns="http://www.w3.org/2000/svg" xml:space="preserve" width="48" height="48"><path d="M31.658 18.103c0-4.223-3.436-7.659-7.658-7.659s-7.658 3.436-7.658 7.659 3.436 7.659 7.658 7.659 7.658-3.436 7.658-7.659zm-11.916 0c0-2.348 1.91-4.258 4.258-4.258s4.258 1.91 4.258 4.258-1.91 4.258-4.258 4.258-4.258-1.91-4.258-4.258z"/><path d="M35.5 10.444a7.619 7.619 0 0 0-4.254 1.294 9.673 9.673 0 0 1 1.768 2.923 4.222 4.222 0 0 1 2.486-.817c2.348 0 4.258 1.91 4.258 4.258s-1.91 4.258-4.258 4.258c-.93 0-1.783-.308-2.484-.815a9.665 9.665 0 0 1-1.772 2.919 7.614 7.614 0 0 0 4.257 1.296c4.223 0 7.658-3.436 7.658-7.659s-3.436-7.657-7.659-7.657zM31.615 29.52a7.609 7.609 0 0 0-4.387-1.39h-6.457a7.609 7.609 0 0 0-4.387 1.39 7.648 7.648 0 0 0-3.273 6.269v1.768h3.4v-1.768a4.263 4.263 0 0 1 4.26-4.258h6.457c2.35 0 4.26 1.91 4.26 4.258v1.768h3.4v-1.768a7.645 7.645 0 0 0-3.273-6.269zM43.115 29.52a7.609 7.609 0 0 0-4.387-1.39h-5.654a9.698 9.698 0 0 1 2.807 3.4h2.848c2.35 0 4.26 1.91 4.26 4.258v1.768h3.4v-1.768a7.648 7.648 0 0 0-3.274-6.268zM12.5 10.444c1.573 0 3.036.478 4.254 1.294a9.673 9.673 0 0 0-1.768 2.923 4.222 4.222 0 0 0-2.486-.817c-2.348 0-4.258 1.91-4.258 4.258s1.91 4.258 4.258 4.258c.93 0 1.783-.308 2.484-.815a9.665 9.665 0 0 0 1.772 2.919 7.614 7.614 0 0 1-4.257 1.296c-4.223 0-7.658-3.436-7.658-7.659s3.436-7.657 7.659-7.657zM4.885 29.52a7.609 7.609 0 0 1 4.387-1.39h5.654a9.698 9.698 0 0 0-2.807 3.4H9.271c-2.35 0-4.26 1.91-4.26 4.258v1.768h-3.4v-1.768a7.648 7.648 0 0 1 3.274-6.268z"/></svg>