<svg xmlns="http://www.w3.org/2000/svg" xml:space="preserve" width="48" height="48"><path d="M24 33.422c.938 0 1.7-.762 1.7-1.7v-2.688a1.701 1.701 0 0 0-3.4 0v2.688c0 .938.762 1.7 1.7 1.7z"/><path d="M33.508 19.417H32.04v-5.21c0-4.434-3.606-8.04-8.04-8.04s-8.04 3.606-8.04 8.04v2.411h3.4v-2.411c0-2.559 2.081-4.64 4.64-4.64s4.64 2.081 4.64 4.64v5.21H14.492a2.703 2.703 0 0 0-2.7 2.7v17.016c0 1.489 1.211 2.7 2.7 2.7h19.016c1.489 0 2.7-1.211 2.7-2.7V22.117c0-1.489-1.211-2.7-2.7-2.7zm-.7 19.016H15.192V22.817h17.615v15.616z"/></svg>