<?xml version="1.0" encoding="utf-8"?>
<!-- Generator: Adobe Illustrator 16.0.0, SVG Export Plug-In . SVG Version: 6.00 Build 0)  -->
<!DOCTYPE svg PUBLIC "-//W3C//DTD SVG 1.1//EN" "http://www.w3.org/Graphics/SVG/1.1/DTD/svg11.dtd">
<svg version="1.1" id="Layer_1" xmlns="http://www.w3.org/2000/svg" xmlns:xlink="http://www.w3.org/1999/xlink" x="0px" y="0px"
	 width="48px" height="48px" viewBox="0 0 48 48" enable-background="new 0 0 48 48" xml:space="preserve">
<g>
	<path d="M25.908,18.103c0-4.223-3.436-7.659-7.658-7.659s-7.658,3.436-7.658,7.659s3.436,7.659,7.658,7.659
		S25.908,22.326,25.908,18.103z M13.992,18.103c0-2.348,1.91-4.258,4.258-4.258s4.258,1.91,4.258,4.258s-1.91,4.258-4.258,4.258
		S13.992,20.451,13.992,18.103z"/>
	<path d="M29.75,10.444c-1.573,0-3.036,0.478-4.254,1.294c0.752,0.855,1.353,1.842,1.768,2.923c0.701-0.508,1.556-0.817,2.486-0.817
		c2.348,0,4.258,1.91,4.258,4.258s-1.91,4.258-4.258,4.258c-0.93,0-1.783-0.308-2.484-0.815c-0.415,1.08-1.02,2.065-1.772,2.919
		c1.219,0.818,2.683,1.296,4.257,1.296c4.223,0,7.658-3.436,7.658-7.659S33.973,10.444,29.75,10.444z"/>
	<path d="M25.865,29.52c-1.244-0.873-2.754-1.39-4.387-1.39h-6.457c-1.633,0-3.143,0.517-4.387,1.39
		c-1.977,1.387-3.273,3.677-3.273,6.269v1.768h3.4v-1.768c0-2.348,1.91-4.258,4.26-4.258h6.457c2.35,0,4.26,1.91,4.26,4.258v1.768
		h3.4v-1.768C29.139,33.197,27.842,30.907,25.865,29.52z"/>
	<path d="M37.365,29.52c-1.244-0.873-2.754-1.39-4.387-1.39h-5.654c1.199,0.917,2.154,2.081,2.807,3.4h2.848
		c2.35,0,4.26,1.91,4.26,4.258v1.768h3.4v-1.768C40.639,33.197,39.342,30.907,37.365,29.52z"/>
</g>
</svg>
