<?xml version="1.0" encoding="utf-8"?>
<!-- Generator: Adobe Illustrator 16.0.0, SVG Export Plug-In . SVG Version: 6.00 Build 0)  -->
<!DOCTYPE svg PUBLIC "-//W3C//DTD SVG 1.1//EN" "http://www.w3.org/Graphics/SVG/1.1/DTD/svg11.dtd">
<svg version="1.1" id="Layer_1" xmlns="http://www.w3.org/2000/svg" xmlns:xlink="http://www.w3.org/1999/xlink" x="0px" y="0px"
	 width="48px" height="48px" viewBox="0 0 48 48" enable-background="new 0 0 48 48" xml:space="preserve">
<g>
	<path d="M40.015,25.797h-9.155c-1.337,0-2.424,1.088-2.424,2.426v7.992c0,0.924,0.749,1.674,1.675,1.674
		c0.925,0,1.674-0.75,1.674-1.674v-7.068h8.23c0.463,0,0.881-0.188,1.185-0.49s0.491-0.721,0.491-1.184
		C41.69,26.547,40.94,25.797,40.015,25.797z"/>
	<path d="M17.137,25.787H8.021c-0.925,0-1.675,0.75-1.675,1.676c0,0.924,0.75,1.674,1.675,1.674h8.19v7.107
		c0,0.463,0.188,0.881,0.49,1.184s0.722,0.49,1.184,0.49c0.926,0,1.676-0.75,1.676-1.674v-8.033
		C19.562,26.875,18.474,25.787,17.137,25.787z"/>
	<path d="M7.976,22.227h9.154c1.338,0,2.425-1.088,2.425-2.424v-7.992c0-0.926-0.75-1.676-1.675-1.676s-1.675,0.75-1.675,1.676
		v7.066H7.976c-0.463,0-0.882,0.188-1.186,0.49C6.487,19.67,6.3,20.09,6.3,20.553C6.3,21.477,7.05,22.227,7.976,22.227z"/>
	<path d="M30.91,22.213h9.115c0.925,0,1.675-0.75,1.675-1.676c0-0.924-0.75-1.674-1.675-1.674h-8.19v-7.107
		c0-0.463-0.188-0.881-0.49-1.184s-0.722-0.49-1.184-0.49c-0.926,0-1.676,0.748-1.676,1.674v8.033
		C28.485,21.125,29.573,22.213,30.91,22.213z"/>
</g>
</svg>
