<?xml version="1.0" encoding="utf-8"?>
<!-- Generator: Adobe Illustrator 16.0.0, SVG Export Plug-In . SVG Version: 6.00 Build 0)  -->
<!DOCTYPE svg PUBLIC "-//W3C//DTD SVG 1.1//EN" "http://www.w3.org/Graphics/SVG/1.1/DTD/svg11.dtd">
<svg version="1.1" id="Layer_1" xmlns="http://www.w3.org/2000/svg" xmlns:xlink="http://www.w3.org/1999/xlink" x="0px" y="0px"
	 width="48px" height="48px" viewBox="0 0 48 48" enable-background="new 0 0 48 48" xml:space="preserve">
<g>
	<path d="M17.869,10.089H8.715c-1.338,0-2.426,1.088-2.426,2.424v7.897c0,0.925,0.75,1.675,1.676,1.675
		c0.924,0,1.674-0.75,1.674-1.675v-6.972h8.23c0.463,0,0.881-0.188,1.184-0.491c0.305-0.303,0.492-0.722,0.492-1.184
		C19.545,10.839,18.795,10.089,17.869,10.089z"/>
	<path d="M39.285,10.069H30.17c-0.926,0-1.674,0.75-1.674,1.675s0.748,1.675,1.674,1.675h8.189v7.013
		c0,0.462,0.188,0.881,0.492,1.184c0.303,0.304,0.721,0.491,1.184,0.491c0.924,0,1.674-0.75,1.674-1.675v-7.938
		C41.709,11.157,40.623,10.069,39.285,10.069z"/>
	<path d="M40.035,26.219c-0.926,0-1.676,0.75-1.676,1.675v6.668h-8.23c-0.461,0-0.881,0.188-1.184,0.49s-0.49,0.722-0.49,1.185
		c0,0.925,0.75,1.675,1.676,1.675h9.154c1.338,0,2.424-1.088,2.424-2.425v-7.593C41.709,26.969,40.959,26.219,40.035,26.219z"/>
	<path d="M17.83,34.582H9.639v-6.708c0-0.462-0.188-0.881-0.49-1.184c-0.303-0.304-0.721-0.491-1.184-0.491
		c-0.926,0-1.676,0.75-1.676,1.675v7.634c0,1.336,1.088,2.424,2.426,2.424h9.115c0.924,0,1.674-0.75,1.674-1.675
		S18.754,34.582,17.83,34.582z"/>
</g>
</svg>
