<?xml version="1.0" encoding="utf-8"?>
<!-- Generator: Adobe Illustrator 16.0.0, SVG Export Plug-In . SVG Version: 6.00 Build 0)  -->
<!DOCTYPE svg PUBLIC "-//W3C//DTD SVG 1.1//EN" "http://www.w3.org/Graphics/SVG/1.1/DTD/svg11.dtd">
<svg version="1.1" id="Layer_1" xmlns="http://www.w3.org/2000/svg" xmlns:xlink="http://www.w3.org/1999/xlink" x="0px" y="0px"
	 width="48px" height="48px" viewBox="0 0 48 48" enable-background="new 0 0 48 48" xml:space="preserve">
<g>
	<path d="M24,19.035c-1.326,0-2.572,0.517-3.511,1.454c-0.938,0.938-1.454,2.185-1.454,3.511s0.517,2.573,1.454,3.511
		c0.938,0.938,2.185,1.454,3.511,1.454s2.573-0.517,3.511-1.454s1.454-2.185,1.454-3.511s-0.517-2.573-1.454-3.511
		S25.326,19.035,24,19.035z M24,26.33c-1.285,0-2.33-1.046-2.33-2.33s1.045-2.329,2.33-2.329s2.33,1.045,2.33,2.329
		S25.285,26.33,24,26.33z"/>
	<path d="M36.721,26.463l-1.312-0.757c0.083-0.562,0.125-1.131,0.125-1.706c0-0.537-0.036-1.068-0.108-1.593l1.348-0.778
		c0.91-0.525,1.224-1.694,0.697-2.605l-2.373-4.109c-0.525-0.911-1.693-1.225-2.604-0.698l-1.312,0.757
		c-0.82-0.652-1.721-1.188-2.691-1.6c-0.053-0.022-0.104-0.044-0.157-0.064v-1.556c0-1.052-0.855-1.907-1.907-1.907H21.68
		c-1.051,0-1.906,0.855-1.906,1.907v1.513c-0.088,0.035-0.176,0.07-0.264,0.107c-0.936,0.396-1.807,0.908-2.602,1.529l-1.348-0.778
		c-0.911-0.526-2.08-0.213-2.605,0.698l-2.373,4.109c-0.525,0.911-0.213,2.08,0.698,2.605l1.312,0.757
		c-0.084,0.562-0.125,1.131-0.125,1.706c0,0.537,0.035,1.068,0.107,1.593l-1.348,0.778c-0.91,0.525-1.223,1.694-0.697,2.605
		l2.373,4.109c0.525,0.911,1.694,1.225,2.605,0.698l1.312-0.757c0.819,0.652,1.72,1.188,2.69,1.6
		c0.053,0.022,0.105,0.044,0.157,0.064v1.556c0,1.052,0.855,1.907,1.907,1.907h4.746c1.051,0,1.907-0.855,1.907-1.907v-1.513
		c0.088-0.035,0.175-0.07,0.263-0.107c0.936-0.396,1.807-0.908,2.602-1.529l1.348,0.778c0.911,0.526,2.08,0.213,2.605-0.698
		l2.373-4.109C37.944,28.157,37.631,26.988,36.721,26.463z M32.898,23.866c0,0.045,0,0.089,0,0.134c0,0.085-0.001,0.17-0.004,0.254
		c-0.026,0.961-0.207,1.884-0.516,2.745l2.313,1.335l0.08,0.047l-0.482,0.837c-0.188,0.371-0.396,0.731-0.623,1.078l-0.539,0.934
		l-0.096-0.055l-2.318-1.339c-0.616,0.708-1.342,1.316-2.15,1.802c-0.109,0.066-0.222,0.13-0.335,0.191
		c-0.812,0.439-1.698,0.757-2.636,0.927v2.669v0.095h-1.005c-0.194,0.01-0.391,0.015-0.587,0.015s-0.393-0.005-0.586-0.015h-1.111
		V35.41v-2.674c-0.939-0.183-1.826-0.513-2.636-0.966c-0.112-0.063-0.224-0.128-0.333-0.195c-0.797-0.493-1.512-1.109-2.117-1.821
		l-2.314,1.337l-0.082,0.048l-0.486-0.842c-0.227-0.348-0.435-0.708-0.623-1.079l-0.535-0.929l0.094-0.054l2.316-1.338
		c-0.301-0.869-0.469-1.798-0.483-2.764c-0.001-0.045-0.001-0.089-0.001-0.134c0-0.085,0.001-0.17,0.004-0.255
		c0.027-0.96,0.207-1.883,0.516-2.744l-2.313-1.335l-0.08-0.047l0.482-0.837c0.188-0.371,0.396-0.73,0.623-1.078l0.539-0.935
		l0.096,0.056l2.318,1.339c0.616-0.707,1.342-1.317,2.15-1.802c0.11-0.066,0.223-0.13,0.336-0.191
		c0.811-0.439,1.697-0.757,2.635-0.927v-2.669V12.48h1.006c0.193-0.01,0.39-0.015,0.586-0.015s0.393,0.005,0.587,0.015h1.11v0.109
		v2.674c0.939,0.183,1.826,0.513,2.636,0.966c0.112,0.063,0.224,0.128,0.333,0.195c0.798,0.493,1.512,1.109,2.117,1.82l2.314-1.336
		l0.082-0.048l0.486,0.843c0.227,0.348,0.435,0.707,0.623,1.078l0.536,0.929l-0.094,0.054l-2.317,1.338
		C32.715,21.972,32.884,22.9,32.898,23.866z"/>
</g>
</svg>
