<?xml version="1.0" encoding="utf-8"?>
<!-- Generator: Adobe Illustrator 16.0.0, SVG Export Plug-In . SVG Version: 6.00 Build 0)  -->
<!DOCTYPE svg PUBLIC "-//W3C//DTD SVG 1.1//EN" "http://www.w3.org/Graphics/SVG/1.1/DTD/svg11.dtd">
<svg version="1.1" id="Layer_1" xmlns="http://www.w3.org/2000/svg" xmlns:xlink="http://www.w3.org/1999/xlink" x="0px" y="0px"
	 width="48px" height="48px" viewBox="0 0 48 48" enable-background="new 0 0 48 48" xml:space="preserve">
<path d="M39.286,10.068H24.559c-0.084,0-0.166,0.01-0.246,0.021H8.714c-1.337,0-2.424,1.086-2.424,2.424v13.838v1.49v7.666
	c0,1.336,1.087,2.424,2.424,2.424h21.708c0.084,0,0.166-0.008,0.246-0.02h8.618c1.336,0,2.424-1.088,2.424-2.426v-7.424v-0.488
	v-15.08C41.71,11.156,40.622,10.068,39.286,10.068z M9.64,27.842v-1.49V13.439h15.812c0.084,0,0.166-0.01,0.246-0.021H38.36v9.314
	H24.5c-1.336,0-2.424,1.088-2.424,2.424v9.426H9.64V27.842z M38.36,34.563h-8.23c-0.083,0-0.165,0.008-0.246,0.02h-4.459v-8.5H38.36
	v1.492v0.488V34.563z"/>
</svg>
