<?xml version="1.0" encoding="utf-8"?>
<!-- Generator: Adobe Illustrator 16.0.0, SVG Export Plug-In . SVG Version: 6.00 Build 0)  -->
<!DOCTYPE svg PUBLIC "-//W3C//DTD SVG 1.1//EN" "http://www.w3.org/Graphics/SVG/1.1/DTD/svg11.dtd">
<svg version="1.1" id="Layer_1" xmlns="http://www.w3.org/2000/svg" xmlns:xlink="http://www.w3.org/1999/xlink" x="0px" y="0px"
	 width="48px" height="48px" viewBox="0 0 48 48" enable-background="new 0 0 48 48" xml:space="preserve">
<g>
	<path d="M24,33.422c0.938,0,1.7-0.762,1.7-1.7v-2.688c0-0.938-0.762-1.7-1.7-1.7s-1.7,0.762-1.7,1.7v2.688
		C22.3,32.66,23.062,33.422,24,33.422z"/>
	<path d="M33.508,19.417H32.04v-5.21c0-4.434-3.606-8.04-8.04-8.04s-8.04,3.606-8.04,8.04v5.21h-1.468c-1.489,0-2.7,1.211-2.7,2.7
		v17.016c0,1.489,1.211,2.7,2.7,2.7h19.016c1.489,0,2.7-1.211,2.7-2.7V22.117C36.208,20.628,34.997,19.417,33.508,19.417z
		 M19.36,14.207c0-2.559,2.081-4.64,4.64-4.64s4.64,2.081,4.64,4.64v5.21H19.36V14.207z M32.808,38.433H15.192V22.817h17.615V38.433
		z"/>
</g>
</svg>
