<?xml version="1.0" encoding="utf-8"?>
<!-- Generator: Adobe Illustrator 16.0.0, SVG Export Plug-In . SVG Version: 6.00 Build 0)  -->
<!DOCTYPE svg PUBLIC "-//W3C//DTD SVG 1.1//EN" "http://www.w3.org/Graphics/SVG/1.1/DTD/svg11.dtd">
<svg version="1.1" id="Layer_1" xmlns="http://www.w3.org/2000/svg" xmlns:xlink="http://www.w3.org/1999/xlink" x="0px" y="0px"
	 width="48px" height="48px" viewBox="0 0 48 48" enable-background="new 0 0 48 48" xml:space="preserve">
<g>
	<path d="M24,33.422c0.938,0,1.7-0.762,1.7-1.7v-2.688c0-0.938-0.762-1.7-1.7-1.7s-1.7,0.762-1.7,1.7v2.688
		C22.3,32.66,23.062,33.422,24,33.422z"/>
	<path d="M36.688,6.167c-4.434,0-8.04,3.606-8.04,8.04v5.21H14.492c-1.489,0-2.7,1.211-2.7,2.7v17.016c0,1.489,1.211,2.7,2.7,2.7
		h19.016c1.489,0,2.7-1.211,2.7-2.7V22.117c0-1.489-1.211-2.7-2.7-2.7h-1.46v-5.21c0-2.559,2.081-4.64,4.64-4.64
		s4.64,2.081,4.64,4.64v6.91h3.4v-6.91C44.728,9.773,41.121,6.167,36.688,6.167z M32.808,38.433H15.192V22.817h17.615V38.433z"/>
</g>
</svg>
