<?xml version="1.0" encoding="utf-8"?>
<!-- Generator: Adobe Illustrator 16.0.0, SVG Export Plug-In . SVG Version: 6.00 Build 0)  -->
<!DOCTYPE svg PUBLIC "-//W3C//DTD SVG 1.1//EN" "http://www.w3.org/Graphics/SVG/1.1/DTD/svg11.dtd">
<svg version="1.1" id="Layer_1" xmlns="http://www.w3.org/2000/svg" xmlns:xlink="http://www.w3.org/1999/xlink" x="0px" y="0px"
	 width="48px" height="48px" viewBox="0 0 48 48" enable-background="new 0 0 48 48" xml:space="preserve">
<g>
	<path d="M31.658,18.103c0-4.223-3.436-7.659-7.658-7.659s-7.658,3.436-7.658,7.659s3.436,7.659,7.658,7.659
		S31.658,22.326,31.658,18.103z M19.742,18.103c0-2.348,1.91-4.258,4.258-4.258s4.258,1.91,4.258,4.258s-1.91,4.258-4.258,4.258
		S19.742,20.451,19.742,18.103z"/>
	<path d="M35.5,10.444c-1.573,0-3.036,0.478-4.254,1.294c0.752,0.855,1.353,1.842,1.768,2.923c0.701-0.508,1.556-0.817,2.486-0.817
		c2.348,0,4.258,1.91,4.258,4.258s-1.91,4.258-4.258,4.258c-0.93,0-1.783-0.308-2.484-0.815c-0.415,1.08-1.02,2.065-1.772,2.919
		c1.219,0.818,2.683,1.296,4.257,1.296c4.223,0,7.658-3.436,7.658-7.659S39.723,10.444,35.5,10.444z"/>
	<path d="M31.615,29.52c-1.244-0.873-2.754-1.39-4.387-1.39h-6.457c-1.633,0-3.143,0.517-4.387,1.39
		c-1.977,1.387-3.273,3.677-3.273,6.269v1.768h3.4v-1.768c0-2.348,1.91-4.258,4.26-4.258h6.457c2.35,0,4.26,1.91,4.26,4.258v1.768
		h3.4v-1.768C34.889,33.197,33.592,30.907,31.615,29.52z"/>
	<path d="M43.115,29.52c-1.244-0.873-2.754-1.39-4.387-1.39h-5.654c1.199,0.917,2.154,2.081,2.807,3.4h2.848
		c2.35,0,4.26,1.91,4.26,4.258v1.768h3.4v-1.768C46.389,33.197,45.092,30.907,43.115,29.52z"/>
	<path d="M12.5,10.444c1.573,0,3.036,0.478,4.254,1.294c-0.752,0.855-1.353,1.842-1.768,2.923c-0.701-0.508-1.556-0.817-2.486-0.817
		c-2.348,0-4.258,1.91-4.258,4.258s1.91,4.258,4.258,4.258c0.93,0,1.783-0.308,2.484-0.815c0.415,1.08,1.02,2.065,1.772,2.919
		c-1.219,0.818-2.683,1.296-4.257,1.296c-4.223,0-7.658-3.436-7.658-7.659S8.277,10.444,12.5,10.444z"/>
	<path d="M4.885,29.52c1.244-0.873,2.754-1.39,4.387-1.39h5.654c-1.199,0.917-2.154,2.081-2.807,3.4H9.271
		c-2.35,0-4.26,1.91-4.26,4.258v1.768h-3.4v-1.768C1.611,33.197,2.908,30.907,4.885,29.52z"/>
</g>
</svg>
