<?xml version="1.0" encoding="utf-8"?>
<!-- Generator: Adobe Illustrator 16.0.0, SVG Export Plug-In . SVG Version: 6.00 Build 0)  -->
<!DOCTYPE svg PUBLIC "-//W3C//DTD SVG 1.1//EN" "http://www.w3.org/Graphics/SVG/1.1/DTD/svg11.dtd">
<svg version="1.1" id="Layer_1" xmlns="http://www.w3.org/2000/svg" xmlns:xlink="http://www.w3.org/1999/xlink" x="0px" y="0px"
	 width="48px" height="48px" viewBox="0 0 48 48" enable-background="new 0 0 48 48" xml:space="preserve">
<g>
	<path d="M31.441,16.457H16.559c-0.723,0-1.385,0.314-1.818,0.863c-0.433,0.549-0.585,1.267-0.416,1.97l4,16.733
		c0.137,0.566,0.473,1.085,0.949,1.461c0.476,0.375,1.059,0.582,1.641,0.582h6.172c0.583,0,1.166-0.207,1.642-0.582
		c0.476-0.376,0.813-0.895,0.948-1.461l4.002-16.733c0.168-0.703,0.016-1.421-0.418-1.97C32.827,16.771,32.164,16.457,31.441,16.457
		z M26.507,34.669h-5.013l-3.543-14.816h12.098L26.507,34.669z"/>
	<path d="M15.799,14.927h16.403c0.938,0,1.698-0.761,1.698-1.698c0-0.938-0.76-1.699-1.698-1.699H29.79
		c-0.054-0.889-0.786-1.596-1.688-1.596h-8.202c-0.903,0-1.634,0.707-1.688,1.596h-2.413c-0.938,0-1.699,0.761-1.699,1.699
		C14.1,14.167,14.861,14.927,15.799,14.927z"/>
</g>
</svg>
