<?xml version="1.0" encoding="utf-8"?>
<!-- Generator: Adobe Illustrator 16.0.0, SVG Export Plug-In . SVG Version: 6.00 Build 0)  -->
<!DOCTYPE svg PUBLIC "-//W3C//DTD SVG 1.1//EN" "http://www.w3.org/Graphics/SVG/1.1/DTD/svg11.dtd">
<svg version="1.1" id="Layer_1" xmlns="http://www.w3.org/2000/svg" xmlns:xlink="http://www.w3.org/1999/xlink" x="0px" y="0px"
	 width="48px" height="48px" viewBox="0 0 48 48" enable-background="new 0 0 48 48" xml:space="preserve">
<g>
	<path d="M15.375,24.392l6.95-6.951v1.956l0.001,10.172c-0.001,0.462,0.187,0.879,0.49,1.184c0.303,0.303,0.721,0.491,1.184,0.49
		c0.925,0,1.676-0.75,1.675-1.674V17.441l6.951,6.951c0.327,0.327,0.755,0.49,1.184,0.49s0.857-0.163,1.185-0.49
		c0.654-0.654,0.654-1.715,0-2.368l-9.279-9.28c-0.945-0.945-2.484-0.945-3.43,0l-9.279,9.28c-0.654,0.653-0.654,1.714,0,2.368
		S14.721,25.046,15.375,24.392z"/>
	<path d="M33.811,32.858H21.612l0,0l-7.424,0.001c-0.462-0.001-0.88,0.186-1.184,0.49c-0.303,0.303-0.491,0.721-0.49,1.184
		c0,0.925,0.75,1.676,1.674,1.675h12.198v0l7.424,0c0.462,0.001,0.88-0.186,1.184-0.49c0.303-0.303,0.491-0.721,0.49-1.184
		C35.484,33.608,34.734,32.857,33.811,32.858z"/>
</g>
</svg>
