<?xml version="1.0" encoding="utf-8"?>
<!-- Generator: Adobe Illustrator 16.0.0, SVG Export Plug-In . SVG Version: 6.00 Build 0)  -->
<!DOCTYPE svg PUBLIC "-//W3C//DTD SVG 1.1//EN" "http://www.w3.org/Graphics/SVG/1.1/DTD/svg11.dtd">
<svg version="1.1" id="Layer_1" xmlns="http://www.w3.org/2000/svg" xmlns:xlink="http://www.w3.org/1999/xlink" x="0px" y="0px"
	 width="48px" height="48px" viewBox="0 0 48 48" enable-background="new 0 0 48 48" xml:space="preserve">
<g>
	<path d="M37.041,18.49c-0.713-1.686-1.734-3.199-3.033-4.498c-1.299-1.301-2.813-2.32-4.498-3.033
		c-1.746-0.738-3.6-1.113-5.51-1.113s-3.764,0.375-5.51,1.113c-1.686,0.713-3.199,1.732-4.5,3.033
		c-1.299,1.299-2.318,2.813-3.033,4.498c-0.738,1.746-1.111,3.6-1.111,5.51s0.373,3.764,1.111,5.51
		c0.715,1.686,1.734,3.199,3.033,4.5c1.301,1.299,2.814,2.318,4.5,3.031c1.746,0.74,3.6,1.113,5.51,1.113s3.764-0.373,5.51-1.113
		c1.686-0.713,3.199-1.732,4.498-3.031c1.299-1.301,2.32-2.814,3.033-4.5c0.738-1.746,1.113-3.6,1.113-5.51
		S37.779,20.236,37.041,18.49z M33.909,28.186c-0.54,1.278-1.316,2.43-2.306,3.42c-0.986,0.987-2.137,1.762-3.421,2.306
		c-1.32,0.56-2.728,0.843-4.183,0.843s-2.862-0.283-4.186-0.845c-1.281-0.541-2.433-1.317-3.418-2.302
		c-0.988-0.989-1.765-2.142-2.308-3.422c-0.56-1.322-0.843-2.73-0.843-4.186s0.283-2.863,0.841-4.183
		c0.545-1.283,1.321-2.435,2.308-3.421c0.988-0.988,2.139-1.764,3.42-2.306c1.326-0.561,2.734-0.845,4.186-0.845
		s2.859,0.284,4.186,0.845c1.281,0.542,2.431,1.316,3.418,2.306c0.989,0.989,1.765,2.139,2.306,3.418
		c0.561,1.326,0.845,2.734,0.845,4.186S34.47,26.859,33.909,28.186z"/>
	<path d="M25.715,16.104c-0.945-0.945-2.486-0.945-3.432,0l-7.156,7.16c-0.654,0.652-0.654,1.714,0,2.367
		c0.654,0.654,1.715,0.654,2.369,0.002l4.828-4.828l0.001,1.952l0.001,8.173c-0.002,0.464,0.186,0.881,0.489,1.185
		c0.303,0.302,0.722,0.49,1.185,0.489c0.923,0.001,1.675-0.749,1.674-1.674l0.001-10.128l4.829,4.829
		c0.329,0.328,0.755,0.491,1.184,0.49c0.43,0,0.859-0.162,1.184-0.49c0.656-0.653,0.656-1.715,0-2.368L25.715,16.104z"/>
</g>
</svg>
